<?xml version="1.0" standalone="no"?>
<!DOCTYPE svg PUBLIC "-//W3C//DTD SVG 20010904//EN"
 "http://www.w3.org/TR/2001/REC-SVG-20010904/DTD/svg10.dtd">
<svg version="1.0" xmlns="http://www.w3.org/2000/svg"
 width="1000.000000pt" height="1000.000000pt" viewBox="0 0 1000.000000 1000.000000"
 preserveAspectRatio="xMidYMid meet">
<metadata>
Created by potrace 1.11, written by Peter Selinger 2001-2013
</metadata>
<g transform="translate(0.000000,1000.000000) scale(0.100000,-0.100000)"
fill="#000000" stroke="none">
<path d="M4675 9919 c-964 -67 -1871 -402 -2630 -970 -196 -146 -336 -269
-531 -463 -405 -406 -692 -806 -944 -1321 -660 -1346 -664 -2935 -11 -4290
729 -1512 2186 -2552 3851 -2749 1255 -149 2523 192 3535 952 350 262 715 627
977 977 760 1012 1101 2280 952 3535 -197 1665 -1237 3122 -2749 3851 -754
364 -1634 535 -2450 478z m611 -2033 c392 -49 715 -155 951 -312 107 -71 257
-214 339 -322 117 -155 203 -353 241 -554 24 -131 24 -435 -1 -573 -29 -161
-62 -261 -131 -400 -122 -246 -321 -442 -575 -570 -47 -24 -52 -29 -35 -36
240 -93 414 -190 559 -310 355 -294 510 -645 476 -1078 -30 -372 -135 -632
-345 -850 -281 -291 -703 -449 -1313 -491 -93 -6 -600 -10 -1276 -10 l-1123 0
-47 123 c-25 67 -46 127 -46 133 0 7 35 19 78 29 247 53 444 161 503 277 11
22 30 74 42 116 l22 77 3 2020 c2 1912 1 2022 -15 2054 -10 19 -31 44 -46 55
-27 20 -44 21 -283 24 l-254 3 -45 141 c-24 78 -43 143 -41 145 10 11 290 99
421 133 373 98 760 162 1160 194 116 9 665 -4 781 -18z"/>
<path d="M4708 7480 c-171 -31 -269 -99 -315 -219 -17 -43 -18 -149 -18 -1861
0 -1431 3 -1834 13 -1905 43 -297 146 -498 304 -590 160 -94 287 -125 512
-125 156 0 241 10 360 41 391 100 670 414 747 839 8 44 14 143 14 240 -1 139
-4 179 -24 255 -89 349 -367 630 -731 738 -127 38 -186 47 -399 57 -253 13
-388 37 -516 95 -93 42 -145 127 -129 213 18 95 51 107 216 82 81 -13 175 -20
274 -20 275 0 469 51 645 171 223 150 365 387 414 687 24 141 16 411 -14 525
-48 181 -132 329 -261 458 -161 162 -352 257 -605 304 -102 19 -414 29 -487
15z"/>
</g>
</svg>
